<svg width="700" height="550" xmlns="http://www.w3.org/2000/svg" data-name="Layer 1">
 <g>
  <title>Layer 1</title>
  <path d="m341.96656,77.99736c0.07345,2.16511 0.04538,4.32251 -0.054,6.47383c-0.06292,1.07413 -0.10362,2.15084 -0.19344,3.22264l-0.12047,1.60934a14.46014,14.46014 0 0 0 -0.10175,1.491a6.728,6.728 0 0 0 0.85028,2.7354c0.46385,0.93052 1.10267,1.79156 1.55506,2.87762a5.00475,5.00475 0 0 1 0.27673,1.7132a3.37584,3.37584 0 0 1 -0.39976,1.69073a2.50764,2.50764 0 0 1 -1.36022,1.11461a5.37939,5.37939 0 0 1 -1.69144,0.25029l0.27789,-0.15275a21.55912,21.55912 0 0 0 -1.72255,5.25724a26.79731,26.79731 0 0 0 -0.38876,2.726a25.66393,25.66393 0 0 1 -0.46713,2.8809a9.5721,9.5721 0 0 1 -1.12092,2.87435a6.22361,6.22361 0 0 1 -2.38289,2.22944a9.32635,9.32635 0 0 1 -6.0963,0.33614l-0.08467,-0.01989l-0.03649,-0.01426a6.20455,6.20455 0 0 0 -1.94033,-0.37941a6.47356,6.47356 0 0 0 -2.05377,0.20374a7.38841,7.38841 0 0 0 -1.94383,0.84022a10.35941,10.35941 0 0 0 -1.73448,1.3532l-0.13076,-0.1055a8.48642,8.48642 0 0 1 1.49144,-1.75226a6.76151,6.76151 0 0 1 2.00231,-1.25846a7.34821,7.34821 0 0 1 4.83573,-0.30573l-0.12094,-0.03391a8.49279,8.49279 0 0 0 4.996,-0.46854a5.999,5.999 0 0 0 2.73353,-3.91175a25.43417,25.43417 0 0 0 0.56724,-2.6788a19.01141,19.01141 0 0 1 0.65052,-2.83247a25.87392,25.87392 0 0 1 2.41657,-5.24672l0.09638,-0.16l0.182,0.007a4.1688,4.1688 0 0 0 1.49144,-0.138a1.82731,1.82731 0 0 0 1.0856,-0.86782a3.301,3.301 0 0 0 -0.106,-2.84558c-0.49356,-0.85028 -1.25706,-1.65027 -1.88442,-2.57142a6.51352,6.51352 0 0 1 -1.33191,-3.26242a6.71505,6.71505 0 0 1 0.01965,-0.92162l0.07251,-0.80233l0.17474,-1.60185c0.10713,-1.069 0.26315,-2.13307 0.39718,-3.19949c0.29427,-2.13049 0.65988,-4.25444 1.127,-6.3709l0.16743,0.01499zm-37.14102,21.60929a9.22964,9.22964 0 0 1 -0.51227,2.58687a12.57514,12.57514 0 0 1 -1.10852,2.40511a11.07817,11.07817 0 0 1 -1.61425,2.10758a8.4423,8.4423 0 0 1 -2.09892,1.60325c0.54806,-0.69637 1.1118,-1.32864 1.599,-2.02734a24.53931,24.53931 0 0 0 1.39344,-2.11413a44.9289,44.9289 0 0 0 2.34152,-4.56134zm8.6338,-6.64903a21.55959,21.55959 0 0 1 1.79226,2.17845c0.27111,0.36233 0.55274,0.70479 0.84326,1.0318a2.49748,2.49748 0 0 0 1.083,0.77168a1.64242,1.64242 0 0 1 -1.49448,-0.261a4.48805,4.48805 0 0 1 -1.09917,-1.03274a5.63516,5.63516 0 0 1 -1.12487,-2.68819z" id="svg_1"/>
  <path d="m329.49047,89.02457a9.94368,9.94368 0 0 1 2.374,-1.73026a11.21817,11.21817 0 0 1 2.7754,-1.0594a8.58176,8.58176 0 0 1 2.9995,-0.128a5.92143,5.92143 0 0 1 2.71084,1.18969a10.3432,10.3432 0 0 0 -2.77423,-0.53706a12.23029,12.23029 0 0 0 -2.75225,0.29473a19.52425,19.52425 0 0 0 -2.68581,0.8332c-0.8835,0.3432 -1.76161,0.72191 -2.64745,1.1371zm6.0758,4.31224a1.17044,1.17044 0 0 0 0,-2.33948a1.17044,1.17044 0 0 0 0,2.33948zm1.26328,3.60625a6.10289,6.10289 0 0 0 0.60233,1.4877a2.865,2.865 0 0 0 0.4428,0.55929c0.17872,0.19135 0.3993,0.36514 0.63929,0.6166a1.66575,1.66575 0 0 1 -1.68442,-2.66359zm1.01028,10.58676a8.05181,8.05181 0 0 1 -1.87553,-0.804a11.03873,11.03873 0 0 1 -1.67343,-1.164a8.89876,8.89876 0 0 1 -1.40933,-1.49635a4.8928,4.8928 0 0 1 -0.88069,-1.8622a24.43017,24.43017 0 0 0 2.83341,2.71833c0.98852,0.85245 2.01915,1.65595 3.00557,2.60822zm-36.18711,8.69041c-2.67318,-2.35693 -5.26,-4.81912 -7.79919,-7.37745c3.07551,-3.97608 9.23637,-4.88624 9.23637,-4.88624s-0.53661,1.80114 5.78705,8.11521c6.31383,6.31406 12.0913,7.60738 13.91186,9.71519c1.82991,2.108 5.90191,7.57884 6.45745,9.54279a40.7037,40.7037 0 0 1 -5.2025,-1.22618a46.58425,46.58425 0 0 1 -4.9342,-1.92606a60.93848,60.93848 0 0 1 -9.12128,-5.35571a99.94514,99.94514 0 0 1 -8.33556,-6.60155z" id="svg_2"/>
  <path d="m341.884,192.71626c-2.56769,-7.15709 -5.05888,-29.56755 -6.96552,-36.68628c-1.90664,-7.10915 -5.10683,-22.73607 -5.67221,-24.70025a24.47389,24.47389 0 0 1 -5.41326,-0.37356a33.23634,33.23634 0 0 1 -5.26,-1.48513a41.74181,41.74181 0 0 1 -4.97256,-2.28979a53.66456,53.66456 0 0 1 -4.63737,-2.89353a60.69384,60.69384 0 0 1 -8.26842,-7.06142a54.12518,54.12518 0 0 1 -6.84108,-8.38352c-1.60957,2.08863 -16.53708,22.487 -16.53708,22.487c-6.36179,19.08582 -4.75222,42.732 -5.61443,47.54181c-4.88653,27.09549 2.40483,68.65841 2.40483,68.65841l27.49787,10.69248c-1.69588,-3.9569 -3.24791,-7.96176 -4.82894,-11.96662q-2.28523,-6.022 -4.44555,-12.11071q-2.17016,-6.07921 -3.98591,-12.30205q-0.91965,-3.10452 -1.57121,-6.32366c-0.14386,-1.09238 -0.33544,-2.2133 -0.39274,-3.29586c-0.05755,-1.08279 -0.163,-2.17494 -0.18222,-3.25774c-0.19158,-8.65181 0.23952,-17.24608 0.81449,-25.83075c0.316,-4.29234 0.64186,-8.57509 1.01542,-12.85784c0.43134,-4.28275 0.82408,-8.56573 1.37028,-12.8293l-1.00607,25.76386c-0.25871,8.57509 -0.63227,17.16936 -0.40234,25.69673c0.01919,1.073 0.10527,2.11739 0.15322,3.18077c0.05754,1.06361 0.22035,2.06968 0.35461,3.11388c0.40234,2.05985 0.91017,4.12953 1.47554,6.18939c1.11133,4.12953 2.41423,8.21111 3.65983,12.32147c1.284,4.09117 2.61564,8.17275 3.96673,12.25433l4.00486,12.2541c-0.03836,2.62547 3.411,14.97547 5.65279,17.21755c2.25166,2.25143 2.25166,8.987 2.25166,8.987c7.10915,1.49472 21.56719,-2.99879 21.56719,-2.99879l-2.80744,-9.35122c7.62679,-2.43365 9.37063,-17.60069 9.37063,-17.60069c-1.92606,-3.71738 -3.69843,-7.51171 -5.50916,-11.28663q-2.63015,-5.70553 -5.11643,-11.47821c-1.6767,-3.84205 -3.21937,-7.74165 -4.6949,-11.67937c-0.71859,-1.97378 -1.39881,-3.96673 -2.00231,-5.99782a23.26624,23.26624 0 0 1 -1.22642,-6.41932c0.19158,-8.36433 0.37356,-16.72867 0.6994,-25.08364l0.49824,-12.54158c0.22994,-4.17726 0.39275,-8.36433 0.68023,-12.54182c0.12467,4.18708 0.12467,8.37392 0.19157,12.561l0.0096,12.55141c0,8.37368 -0.14363,16.74784 -0.28749,25.11217a22.86656,22.86656 0 0 0 1.11157,5.87314c0.57473,1.98336 1.24536,3.94754 1.92582,5.91149c1.36045,3.938 2.88394,7.828 4.36883,11.73692c1.50431,3.8996 3.06616,7.77042 4.647,11.64124l4.7045,11.641l6.25629,0l0,-11.6026s3.4109,-35.03836 -2.01194,-50.15745zm-25.0261,-49.05547a16.49376,16.49376 0 0 0 -3.42053,-1.5808a17.72566,17.72566 0 0 0 -3.65025,-0.86244a18.823,18.823 0 0 0 -3.74638,-0.182a28.48692,28.48692 0 0 0 -7.40621,1.34127a34.68068,34.68068 0 0 0 -3.56416,1.32232a33.40085,33.40085 0 0 0 -3.43949,1.66711a27.3206,27.3206 0 0 1 6.79289,-3.60252a24.62979,24.62979 0 0 1 7.5882,-1.56185a18.11076,18.11076 0 0 1 7.64574,1.26478a17.47133,17.47133 0 0 1 6.32366,4.36906a22.24114,22.24114 0 0 0 -3.12348,-2.17493l0.00001,0z" id="svg_3"/>
  <path d="m276.69213,248.49024q1.80453,11.20861 3.26311,22.46987c0.98946,7.50469 1.851,15.02833 2.516,22.57349c0.66338,7.54423 1.18712,15.1088 1.22992,22.70566a79.93032,79.93032 0 0 1 -0.63087,11.41364c-0.14643,0.95063 -0.31812,1.9008 -0.55274,2.847a21.981,21.981 0 0 1 -0.92232,2.774a56.73118,56.73118 0 0 1 -2.48184,5.17864c-3.63223,6.69816 -7.80785,13.03164 -12.04077,19.31623q-6.38834,9.40128 -13.10883,18.55975q-13.42929,18.32325 -27.57436,36.09448l0.08164,-0.571a87.60883,87.60883 0 0 0 4.6528,9.49741a67.57935,67.57935 0 0 0 5.857,8.80082a32.47687,32.47687 0 0 0 7.61838,7.19312a15.844,15.844 0 0 0 4.74567,2.09751a11.75017,11.75017 0 0 0 5.13911,0.10246l-0.19111,0.12093l14.30975,-18.80278c4.77163,-6.26658 9.45881,-12.59679 14.17805,-18.90243l14.08355,-18.97168l6.981,-9.52782c2.28628,-3.18592 4.675,-6.37769 6.73909,-9.63706l0.75273,-1.18852l0.14316,1.37963l7.8958,76.02189l-0.5876,-0.69192c3.2685,0.82338 6.63477,1.462 9.99145,1.967a96.25042,96.25042 0 0 0 10.13577,0.99109a60.363,60.363 0 0 0 10.11588,-0.34806a30.92622,30.92622 0 0 0 9.58607,-2.63786l-0.4959,0.87508l-4.41889,-51.92655c-1.491,-17.30737 -2.82429,-34.6283 -4.24415,-51.94175l-0.00327,-0.0414l0.00163,-0.03977c0.28117,-6.83335 0.37707,-13.69314 0.35976,-20.54264c-0.02362,-6.8516 -0.18011,-13.70367 -0.52069,-20.54639c-0.35508,-6.84107 -0.851,-13.67747 -1.65448,-20.48065a127.77486,127.77486 0 0 0 -3.82919,-20.16721l0.1607,-0.04913a128.12789,128.12789 0 0 1 4.21749,20.14546c0.94759,6.80342 1.55694,13.65011 1.9602,20.50452c0.41006,6.85487 0.63555,13.71911 0.72818,20.58474c0.08608,6.86751 0.05942,13.72871 -0.15462,20.60464l-0.00163,-0.0807c1.55249,17.302 3.19153,34.59672 4.67292,51.90479l4.49818,51.92l0.05333,0.61543l-0.549,0.25988a32.62631,32.62631 0 0 1 -10.15261,2.75926a62.015,62.015 0 0 1 -10.4036,0.31438a97.905,97.905 0 0 1 -10.30746,-1.05332c-3.41516,-0.53052 -6.78681,-1.18314 -10.15916,-2.04839l-0.5352,-0.13731l-0.05286,-0.55484l-7.264,-76.085l0.8959,0.19088c-2.1857,3.37328 -4.54731,6.47616 -6.872,9.67308l-7.0488,9.48572l-14.2134,18.87919l-14.26063,18.84209l-14.21571,18.876l-0.07228,0.0959l-0.11929,0.02526a12.53282,12.53282 0 0 1 -5.42917,-0.07508a16.55284,16.55284 0 0 1 -4.9859,-2.12582a33.2574,33.2574 0 0 1 -7.90726,-7.271a68.49148,68.49148 0 0 1 -6.05348,-8.84877a88.35333,88.35333 0 0 1 -4.83549,-9.57391l-0.12866,-0.30058l0.21029,-0.27064c4.64041,-5.96834 9.20011,-12.00615 13.75982,-18.03882q6.8385,-9.05145 13.51654,-18.2194c4.43058,-6.12623 8.85578,-12.2562 13.12216,-18.49238c4.24836,-6.24131 8.44363,-12.54322 12.05925,-19.13611a55.436,55.436 0 0 0 2.44651,-5.03946a21.71459,21.71459 0 0 0 1.41963,-5.32133a83.9259,83.9259 0 0 0 0.71719,-11.227c0.04023,-7.53884 -0.39813,-15.09172 -0.97777,-22.62635q-1.84629,-22.60146 -5.02472,-45.09436l0.1661,-0.02573z" id="svg_4"/>
  <path d="m280.09021,249.85677c1.44045,4.71853 2.78055,9.46326 4.17655,14.19326l4.01959,14.23442c2.68277,9.48853 5.24157,19.0098 7.817,28.5264c2.53705,9.52689 5.076,19.05307 7.52458,28.60358l7.37393,28.64663c-1.60208,-4.66637 -3.01656,-9.39379 -4.47128,-14.10647l-4.14965,-14.20028c-2.74336,-9.47332 -5.32578,-18.98991 -7.89954,-28.50861c-2.53494,-9.529 -5.05233,-19.06243 -7.43826,-28.63073l-3.56791,-14.35512c-1.12822,-4.80111 -2.31064,-9.58794 -3.38501,-14.40308zm116.57591,218.23272c-3.7181,-1.46371 -8.60777,-3.44935 -13.28407,-5.37476l-0.00863,0.002l-2.94578,1.798c-0.94993,0.607 -1.90573,1.18815 -2.77757,1.85906a17.44945,17.44945 0 0 0 -2.48721,2.13758a12.80345,12.80345 0 0 0 -1.933,2.73675a6.29717,6.29717 0 0 1 1.07147,-3.41078a10.62943,10.62943 0 0 1 2.52,-2.58957a14.20918,14.20918 0 0 1 3.12189,-1.70207a11.80066,11.80066 0 0 1 3.43021,-0.829c-2.79345,-1.14894 -5.5081,-2.27048 -7.85457,-3.24956c-1.82272,1.43252 -3.70455,2.60636 -5.48786,3.89367a24.15717,24.15717 0 0 0 -2.54065,2.02266a4.81575,4.81575 0 0 0 -1.683,2.67984a2.802,2.802 0 0 1 0.00857,-1.78927a5.73157,5.73157 0 0 1 0.84806,-1.609a11.52011,11.52011 0 0 1 2.55549,-2.43422a18.34,18.34 0 0 1 3.01056,-1.713a13.96657,13.96657 0 0 1 3.28879,-1.05075c-4.36763,-1.80524 -7.47956,-3.1173 -7.47956,-3.1173c-0.54151,0.25061 -1.08734,0.40255 -1.61746,0.62354c-0.52153,0.21881 -1.05288,0.39467 -1.55124,0.63543c-0.25347,0.12146 -0.50028,0.23233 -0.75775,0.33655l-0.72865,0.38417a15.85722,15.85722 0 0 0 -1.42167,0.8056a19.56832,19.56832 0 0 0 -2.63986,1.94565a23.26494,23.26494 0 0 0 -2.40419,2.38173a7.789,7.789 0 0 1 1.62363,-3.13782a11.06016,11.06016 0 0 1 2.67866,-2.37178a11.23231,11.23231 0 0 1 3.30614,-1.37208a9.83856,9.83856 0 0 1 3.51239,-0.231s-1.49318,-8.83952 -7.04995,-6.20027a5.97994,5.97994 0 0 0 -2.67711,2.6166c-1.24666,2.32592 -4.61016,7.14022 -11.03928,6.7946a9.80015,9.80015 0 0 1 -7.316,-3.98964c-1.67871,-2.26536 -4.50893,-5.084 -7.67785,-4.02456c-5.06544,1.69248 -2.25959,10.44054 -2.25959,10.44054s0.61179,5.45761 -1.70662,8.89013a9.82139,9.82139 0 0 0 -1.36886,9.05784c1.45922,3.76706 5.2836,6.96657 14.95605,3.44159c0,0 6.66507,-2.9106 23.294,0.666c16.6376,3.57437 38.87152,4.88162 39.31468,-7.91088a2.92668,2.92668 0 0 0 -2.15212,-2.51113a3.07436,3.07436 0 0 0 -1.68685,0.24029a4.84242,4.84242 0 0 0 -1.48745,0.87489a5.54861,5.54861 0 0 0 -1.52451,2.06293c-0.12986,0.26554 -0.24987,0.574 -0.40759,0.83683a10.16784,10.16784 0 0 1 -2.38675,2.89489a15.104,15.104 0 0 1 -6.764,3.03308a28.8331,28.8331 0 0 1 -7.38449,0.31713l-0.01726,0.00394l-0.047,-0.00742c-4.272,-0.71151 -8.57326,-1.35254 -12.87091,-1.85864c-2.15313,-0.25207 -4.30706,-0.46763 -6.46041,-0.6016a26.31352,26.31352 0 0 0 -6.34337,0.18826a30.29077,30.29077 0 0 1 -6.63823,0.328a63.69785,63.69785 0 0 1 -6.54656,-0.58191a46.57589,46.57589 0 0 1 -6.43287,-1.31551a23.9982,23.9982 0 0 1 -3.104,-1.078a10.13917,10.13917 0 0 1 -1.45859,-0.74627a6.51219,6.51219 0 0 1 -1.29894,-1.00045a9.18858,9.18858 0 0 0 2.85884,1.51495a23.8328,23.8328 0 0 0 3.119,0.86594a60.94172,60.94172 0 0 0 6.40786,0.96752a64.73334,64.73334 0 0 0 6.47015,0.327a35.00765,35.00765 0 0 0 6.37531,-0.48568c0.504,-0.097 1.12407,-0.20231 1.67907,-0.27461c0.55618,-0.02739 1.11315,-0.09107 1.67328,-0.1012l1.65852,-0.0068l1.65512,0.05732c2.18786,0.12608 4.36561,0.32712 6.54261,0.56465q6.507,0.78583 12.95024,1.96743a29.66778,29.66778 0 0 0 7.01425,-0.15082a14.11012,14.11012 0 0 0 6.43095,-2.58492a9.5003,9.5003 0 0 0 2.2946,-2.58348c0.15964,-0.25418 0.27422,-0.50715 0.42992,-0.77859a6.88117,6.88117 0 0 1 0.495,-0.81161a5.78855,5.78855 0 0 1 1.31486,-1.35261a5.26784,5.26784 0 0 1 1.67365,-0.85408a3.5287,3.5287 0 0 1 1.87156,-0.1465a2.33539,2.33539 0 0 1 1.5057,1.07126a4.1813,4.1813 0 0 1 0.59146,1.71554s2.21179,-4.09773 -7.84266,-8.04224zm-44.42764,3.51786c-0.59376,1.96814 -5.144,4.28688 -8.22633,1.83409c-3.57387,-2.85763 -6.6453,-3.31718 -6.04978,-5.27664c0.60426,-1.96145 4.28106,-2.78324 8.22638,-1.83388c3.9474,0.95797 6.65394,3.31521 6.04973,5.27643z" id="svg_5"/>
  <path d="m385.68526,486.8912a104.20255,104.20255 0 0 1 -20.57329,-2.46827c-16.26457,-3.49562 -22.99009,-0.71578 -23.05652,-0.68864c-10.18372,3.71176 -14.03584,0.058 -15.47582,-3.65843a10.15673,10.15673 0 0 1 1.41,-9.41648c2.2119,-3.27668 1.6477,-8.57626 1.64209,-8.62959c-0.10293,-0.29567 -2.84535,-9.05906 2.52347,-10.85272c3.33095,-1.11624 6.25114,1.64863 8.115,4.16181a9.38712,9.38712 0 0 0 7.02306,3.83247c6.03688,0.29941 9.28081,-3.98966 10.67588,-6.58986a6.32563,6.32563 0 0 1 2.85282,-2.78358a4.16275,4.16275 0 0 1 3.854,-0.10854c2.55341,1.32957 3.50966,5.39127 3.708,6.38213c0.72794,0.306 3.44977,1.44934 7.07358,2.94827l0.00094,-0.00094l0.21146,0.088l0.00093,0.00094l1.24163,0.51274l-0.00749,0.00187c2.00793,0.83461 4.22825,1.75156 6.50284,2.68722l0.12257,0.04491c5.17607,2.13143 9.89179,4.03924 13.27794,5.37162l0,0c4.52018,1.77308 7.22985,3.81188 8.05229,6.0584a3.31831,3.31831 0 0 1 0.02339,2.4664a8.85536,8.85536 0 0 1 -3.50966,6.878c-3.63688,2.83507 -9.53437,3.76227 -15.68911,3.76227zm-30.97034,-4.84484a81.77632,81.77632 0 0 1 10.56173,1.61494c6.27828,1.34829 27.40641,5.25373 35.6187,-1.148a8.1125,8.1125 0 0 0 3.22241,-6.36342c-0.00374,-0.03462 -0.00936,-0.06831 -0.014,-0.102a2.50718,2.50718 0 0 0 -1.79927,-2.04067a2.71049,2.71049 0 0 0 -1.48021,0.21239a4.46343,4.46343 0 0 0 -1.38759,0.81215a5.196,5.196 0 0 0 -1.05074,1.21262a5.09053,5.09053 0 0 0 -0.36959,0.70829l-0.13193,0.28444a5.78511,5.78511 0 0 1 -0.30034,0.59976a10.59864,10.59864 0 0 1 -2.47015,2.99224a15.36866,15.36866 0 0 1 -6.93791,3.11575a28.85107,28.85107 0 0 1 -7.42072,0.32935l-0.01684,0.00468l-0.101,-0.00842c-4.76813,-0.79438 -8.972,-1.40162 -12.90369,-1.86477c-2.486,-0.291 -4.53233,-0.48093 -6.43827,-0.59976l-0.24608,-0.01123a25.06588,25.06588 0 0 0 -5.99664,0.19275c-0.11237,0.02055 -0.22559,0.04019 -0.33787,0.05891zm-21.03644,-30.33971a4.0054,4.0054 0 0 0 -1.27624,0.20959c-4.64087,1.55132 -2.0388,9.86747 -2.01166,9.95168c0.0421,0.30409 0.6166,5.71594 -1.7553,9.22747a9.3945,9.3945 0 0 0 -1.32864,8.6979c1.91249,4.93373 6.777,6.01722 14.45969,3.21679a15.00871,15.00871 0 0 1 3.70615,-0.85706c-1.28747,-0.10292 -2.52441,-0.2414 -3.73609,-0.41637a46.97719,46.97719 0 0 1 -6.48413,-1.32583a24.23623,24.23623 0 0 1 -3.1541,-1.09566a10.60266,10.60266 0 0 1 -1.51765,-0.77846a5.56542,5.56542 0 0 1 -1.15928,-0.8711l-0.18152,-0.16187l0.50807,-0.59134a8.836,8.836 0 0 0 2.73961,1.44653a23.03484,23.03484 0 0 0 3.0699,0.85239a60.33618,60.33618 0 0 0 6.36623,0.96092a64.06685,64.06685 0 0 0 6.42985,0.32374a35.04534,35.04534 0 0 0 6.30074,-0.47813c0.5118,-0.09824 1.13963,-0.2049 1.702,-0.27789c0.24982,-0.014 0.46783,-0.03087 0.68677,-0.04771c0.34339,-0.02527 0.68584,-0.05147 1.03017,-0.058l1.6636,-0.00655l1.67015,0.058c1.993,0.11415 4.07854,0.29473 6.57208,0.567c4.44812,0.53706 8.813,1.20045 12.97947,1.97143a29.14219,29.14219 0 0 0 6.88458,-0.15345a13.623,13.623 0 0 0 6.25021,-2.50663a9.21229,9.21229 0 0 0 2.19974,-2.47576c0.09169,-0.14689 0.16467,-0.28724 0.24046,-0.4304c0.058,-0.11228 0.11789,-0.22456 0.18433,-0.34152a7.12932,7.12932 0 0 1 0.51648,-0.8449a6.1,6.1 0 0 1 1.40349,-1.44091a5.6159,5.6159 0 0 1 1.79366,-0.91321a3.90387,3.90387 0 0 1 2.06126,-0.15438a2.742,2.742 0 0 1 1.61775,1.04139c-0.52958,-1.38571 -2.27739,-3.46943 -7.58633,-5.55221l-0.00098,0c-3.3506,-1.31928 -8.00083,-3.2 -13.11047,-5.30332l-3.27481,2.01261c-0.79437,0.50338 -1.54477,0.9787 -2.25026,1.52138a16.98226,16.98226 0 0 0 -2.4402,2.09494a12.50631,12.50631 0 0 0 -1.87319,2.6526l-0.713,1.34548l-0.02152,-1.52232a6.69636,6.69636 0 0 1 1.13308,-3.62662a11.09109,11.09109 0 0 1 2.61049,-2.68815a14.69617,14.69617 0 0 1 3.2168,-1.75623a14.29964,14.29964 0 0 1 2.108,-0.64748c-2.24371,-0.92443 -4.40508,-1.818 -6.3288,-2.62078c-1.08817,0.844 -2.19974,1.60372 -3.27668,2.34008c-0.68958,0.47158 -1.37355,0.93941 -2.04348,1.42314a23.81342,23.81342 0 0 0 -2.50383,1.992a4.45819,4.45819 0 0 0 -1.56348,2.45611l-0.22831,1.39975l-0.51929,-1.31928a3.17685,3.17685 0 0 1 -0.00187,-2.04348a6.08121,6.08121 0 0 1 0.9104,-1.731a11.78064,11.78064 0 0 1 2.63669,-2.516a18.94511,18.94511 0 0 1 3.083,-1.75437a16.30113,16.30113 0 0 1 2.17073,-0.80092c-3.22616,-1.33612 -5.58683,-2.32886 -6.19875,-2.58617c-0.26947,0.116 -0.538,0.2124 -0.80654,0.30784c-0.22362,0.08046 -0.44631,0.16 -0.66619,0.25169c-0.19929,0.08327 -0.40139,0.16187 -0.6035,0.23953c-0.31438,0.12163 -0.62782,0.2414 -0.92817,0.38643c-0.26105,0.12537 -0.51555,0.23952 -0.78034,0.34713l-0.69426,0.36771c-0.51555,0.25263 -0.99461,0.54175 -1.39694,0.79157a19.28735,19.28735 0 0 0 -2.59459,1.91342a22.77718,22.77718 0 0 0 -2.3616,2.33915l-1.01519,1.16677l0.34151,-1.50922a8.12337,8.12337 0 0 1 1.701,-3.29726a11.39809,11.39809 0 0 1 2.7733,-2.45611a11.74079,11.74079 0 0 1 3.43574,-1.42408a10.09848,10.09848 0 0 1 3.10265,-0.28163c-0.28912,-1.24817 -1.21542,-4.48462 -3.23645,-5.5363a3.42774,3.42774 0 0 0 -3.15785,0.1207a5.56,5.56 0 0 0 -2.50008,2.44769c-1.19484,2.22593 -4.67924,7.36083 -11.40476,7.0006a10.1621,10.1621 0 0 1 -7.60785,-4.1459c-1.4539,-1.96201 -3.58347,-4.09719 -5.96566,-4.09719zm47.06276,31.78435a28.10247,28.10247 0 0 0 7.285,-0.31064a14.6053,14.6053 0 0 0 6.58611,-2.94826a9.9509,9.9509 0 0 0 1.31554,-1.33331a10.15558,10.15558 0 0 1 -1.35577,1.28a14.36859,14.36859 0 0 1 -6.6095,2.66195a29.86048,29.86048 0 0 1 -7.11008,0.15532c-4.18614,-0.77379 -8.53509,-1.43437 -12.96263,-1.96863c-2.47576,-0.2704 -4.54824,-0.44911 -6.51874,-0.56327l-1.64583,-0.05707l-1.643,0.00748c-0.32467,0.00562 -0.65215,0.03088 -0.97963,0.05614c-0.22643,0.01685 -0.451,0.03369 -0.67649,0.04492c-0.51648,0.0683 -1.12747,0.17309 -1.62524,0.26759a35.6406,35.6406 0 0 1 -6.44669,0.4931a65.10256,65.10256 0 0 1 -6.51219,-0.32842c-0.17965,-0.01965 -0.35743,-0.03836 -0.53146,-0.058c0.17684,0.0262 0.35462,0.05053 0.53333,0.07485a62.97011,62.97011 0 0 0 6.50938,0.57918a30.2754,30.2754 0 0 0 6.55243,-0.32281a25.64087,25.64087 0 0 1 6.18,-0.20584l0.25169,0.01216c1.92653,0.11977 3.98591,0.31158 6.48693,0.6035c3.94194,0.46409 8.15521,1.0732 12.88123,1.86009l0.03561,-0.00003zm0.655,-20.02405c-0.41731,0.11789 -0.85239,0.26479 -1.31273,0.44257a13.8415,13.8415 0 0 0 -3.03341,1.65424a10.0293,10.0293 0 0 0 -2.42055,2.48418a6.89315,6.89315 0 0 0 -0.64655,1.27437a13.23684,13.23684 0 0 1 0.89356,-1.07508a17.6266,17.6266 0 0 1 2.54312,-2.1885c0.72607,-0.55766 1.527,-1.06572 2.30079,-1.556l1.67577,-1.03578zm-7.7351,-3.10265q-0.61614,0.21614 -1.27156,0.50994a18.02738,18.02738 0 0 0 -2.94827,1.6767a11.03129,11.03129 0 0 0 -2.46265,2.3457a5.41007,5.41007 0 0 0 -0.67836,1.1939a9.62323,9.62323 0 0 1 0.91976,-0.98806a24.50738,24.50738 0 0 1 2.58616,-2.06032c0.6718,-0.48467 1.36045,-0.95624 2.05564,-1.43156c0.59314,-0.40513 1.19667,-0.81776 1.79924,-1.24629l0.00004,-0.00001zm-7.6406,-3.64814a8.70842,8.70842 0 0 0 -1.39507,0.2414a11.03948,11.03948 0 0 0 -3.21025,1.33332a10.56027,10.56027 0 0 0 -2.57025,2.2802a9.13017,9.13017 0 0 0 -0.8,1.14338c0.32841,-0.31532 0.66806,-0.62409 1.02454,-0.92911a19.94707,19.94707 0 0 1 2.69564,-1.98641a16.38563,16.38563 0 0 1 1.44747,-0.81964l0.71858,-0.37894c0.28444,-0.11789 0.524,-0.22456 0.771,-0.34338c0.31812,-0.15345 0.65028,-0.28257 0.98525,-0.41169c0.1113,-0.0421 0.22171,-0.08514 0.33305,-0.12912l0.00004,-0.00001zm-18.88629,18.17145a5.34676,5.34676 0 0 1 -3.36557,-1.1415a27.92076,27.92076 0 0 0 -3.5237,-2.33541c-1.81237,-1.05823 -3.12229,-1.82266 -2.65633,-3.359c0.67461,-2.18851 4.48929,-3.112 8.69228,-2.09962c2.8154,0.683 5.1246,2.094 6.02658,3.68089a2.61651,2.61651 0 0 1 0.30315,2.08839a5.29171,5.29171 0 0 1 -3.50872,2.85657a6.59216,6.59216 0 0 1 -1.96773,0.30969l0.00004,-0.00001zm-4.145,-8.55661c-2.37938,0 -4.276,0.71953 -4.6549,1.949c-0.27509,0.90666 0.50713,1.40817 2.30453,2.457a28.60662,28.60662 0 0 1 3.61632,2.4a4.94065,4.94065 0 0 0 4.61374,0.69613a4.58193,4.58193 0 0 0 2.996,-2.33821l0.00094,-0.00281a1.83309,1.83309 0 0 0 -0.23672,-1.47366c-0.78689,-1.38478 -2.95856,-2.68347 -5.53162,-3.30849a13.41753,13.41753 0 0 0 -3.10831,-0.37896l0.00002,0z" id="svg_6"/>
  <path stroke="#000" stroke-miterlimit="10" stroke-width="0.78" d="m262.12,475.17287a4.99406,4.99406 0 0 0 -4.222,0.34984c-1.26082,0.74253 -2.5095,1.68231 -3.81629,2.44974q-1.9545,1.1794 -4.02219,2.18551a27.57215,27.57215 0 0 1 -8.7952,2.73622a13.972,13.972 0 0 1 -3.13123,-0.01c9.6791,2.89825 19.94413,2.217 24.76349,-3.91944c0.00678,-0.00528 0.00828,-0.01734 0.01507,-0.02262a4.02922,4.02922 0 0 0 0.46242,-2.145a1.9428,1.9428 0 0 0 -1.25407,-1.62425zm-2.737,-6.67254c-5.66662,-1.36535 -9.0363,1.2807 -10.93087,-2.1301c-0.39424,-0.71587 -0.79389,-1.43868 -1.18822,-2.15448l-3.33375,-0.10257c-1.08741,-0.0129 -2.16277,-0.02431 -3.226,0.06378a20.22535,20.22535 0 0 0 -3.12557,0.48613a15.84065,15.84065 0 0 0 -3.02642,1.21421a6.64785,6.64785 0 0 1 2.66673,-2.2073a10.55981,10.55981 0 0 1 3.39034,-0.84483a13.66676,13.66676 0 0 1 3.43937,0.23818a10.62285,10.62285 0 0 1 3.21,1.14558c-1.34794,-2.4435 -2.65892,-4.83954 -3.78382,-6.91288c-2.23942,0.1988 -4.38863,0.16393 -6.50908,0.29186a21.13689,21.13689 0 0 0 -3.12113,0.352a5.45641,5.45641 0 0 0 -2.80492,1.30315a2.959,2.959 0 0 1 0.9787,-1.42615a5.65888,5.65888 0 0 1 1.5176,-0.888a10.862,10.862 0 0 1 3.34689,-0.69117a16.92512,16.92512 0 0 1 3.36094,0.17944a12.86114,12.86114 0 0 1 3.231,0.879c-2.10333,-3.84655 -3.59606,-6.60185 -3.59606,-6.60185c-1.1072,-0.24778 -2.12246,-0.54536 -3.17462,-0.69465a17.08269,17.08269 0 0 0 -3.09968,-0.26308a17.80646,17.80646 0 0 0 -3.11822,0.23013a30.6985,30.6985 0 0 0 -3.17353,0.676a7.791,7.791 0 0 1 2.91465,-1.69308a10.14039,10.14039 0 0 1 6.745,0.025a8.628,8.628 0 0 1 2.90644,1.7197s4.33089,-8.16107 -1.389,-8.95194a5.87585,5.87585 0 0 0 -3.581,0.75368c-2.34037,1.25674 -7.7842,3.46142 -12.30549,-0.276a8.63343,8.63343 0 0 1 -2.93478,-7.24784c0.1504,-2.78331 -0.20142,-6.64474 -3.18922,-7.46283c-4.77432,-1.30943 -8.07539,7.4753 -8.07539,7.4753s-2.90525,4.8634 -6.72134,6.475a11.338,11.338 0 0 0 -6.57136,6.79365c-1.24078,3.92633 -0.37709,8.64052 8.8989,10.89543c0,0 6.70193,1.15766 16.76092,13.05383a34.57228,34.57228 0 0 0 12.50009,8.89617a10.58767,10.58767 0 0 1 -0.95448,-0.73655l-0.016,-0.02051l-0.02777,-0.02167c-2.71134,-2.89453 -5.49569,-5.7431 -8.36182,-8.47324c-1.42644,-1.37037 -2.88661,-2.71446 -4.40025,-3.97335a19.99392,19.99392 0 0 0 -4.79375,-3.22079a25.79076,25.79076 0 0 1 -5.11819,-3.31618a53.688,53.688 0 0 1 -4.48533,-4.02665a36.8575,36.8575 0 0 1 -3.93145,-4.54514a20.59872,20.59872 0 0 1 -1.61087,-2.54348a7.39786,7.39786 0 0 1 -0.90539,-2.85351a7.47875,7.47875 0 0 0 1.123,2.72762a20.05326,20.05326 0 0 0 1.74553,2.395a46.75853,46.75853 0 0 0 4.11344,4.26179a52.63833,52.63833 0 0 0 4.56516,3.77982a28.52959,28.52959 0 0 0 4.9771,3.02328l0.70283,0.30152c0.24935,0.11055 0.47837,0.23694 0.71417,0.358c0.45125,0.25806 0.88731,0.53858 1.30474,0.823c0.85212,0.57714 1.65673,1.191 2.42743,1.8313c1.56039,1.27694 3.04468,2.624 4.50052,4.00418c2.882,2.75048 5.6422,5.59605 8.31509,8.55294l0.04375,0.04219a9.27252,9.27252 0 0 0 3.66334,1.97909a13.0983,13.0983 0 0 0 4.30528,0.358a26.35857,26.35857 0 0 0 8.54549,-2.40013a81.84175,81.84175 0 0 0 7.96438,-4.3199a5.39229,5.39229 0 0 1 4.55891,-0.15492a2.31635,2.31635 0 0 1 0.91687,0.744a2.10854,2.10854 0 0 1 0.3689,1.1166a4.16921,4.16921 0 0 1 -0.57995,2.10583c0.51163,-0.76842 5.22164,-8.28894 -3.55878,-10.39661zm-40.51834,-13.58571c-1.649,1.306 -6.43113,0.79707 -7.18348,-2.89379c-0.87851,-4.30013 -2.87152,-6.3284 -1.21569,-7.63973c1.64376,-1.31282 4.86007,-0.01964 7.18361,2.894c2.31817,2.90683 2.85946,6.3269 1.21556,7.63952z" id="svg_7"/>
  <rect width="16.424" height="0.78" x="213.691" y="420.954" transform="rotate(-48.698 221.903 421.344)" id="svg_8"/>
  <rect width="9.608" height="0.78" x="233.109" y="438.357" transform="rotate(-51.233 237.913 438.747)" id="svg_9"/>
  <rect width="0.779" height="10.899" x="333.375" y="443.181" transform="rotate(-7.151 333.765 448.63)" id="svg_10"/>
  <rect width="0.779" height="13.301" x="357.837" y="440.904" transform="rotate(-12.885 358.226 447.554)" id="svg_11"/>
  <path d="m301.30489,329.34341c-1.67343,4.67081 -3.64931,9.22677 -5.64975,13.76917q-3.0947,6.77219 -6.52365,13.38952a251.81161,251.81161 0 0 1 -15.24377,25.60971c-2.82639,4.09234 -5.75945,8.1124 -8.84035,12.02019c-3.12955,3.86778 -6.34611,7.67054 -9.79074,11.26417c-3.46358,3.57446 -7.05792,7.02072 -10.84874,10.2415a111.37526,111.37526 0 0 1 -12.07516,8.71263a138.27021,138.27021 0 0 0 21.97654,-19.83341c3.27715,-3.69329 6.45933,-7.46751 9.48689,-11.3678q4.52837,-5.85993 8.70444,-11.9837c5.56765,-8.16106 10.69413,-16.6241 15.49734,-25.2717q3.61152,-6.48166 6.918,-13.13339q3.3684,-6.6199 6.38895,-13.41689zm8.27848,-44.94676a73.4736,73.4736 0 0 1 2.94757,8.33533c0.19555,0.72209 0.382,1.42056 0.52092,2.19037a21.81192,21.81192 0 0 1 0.18269,2.25611c0.06082,1.48139 0.07836,2.94967 0.0938,4.41538c0.0531,2.92675 0.0779,5.85443 0.39532,8.715a18.11368,18.11368 0 0 0 0.84817,4.10778a3.483,3.483 0 0 0 0.93754,1.48a1.305,1.305 0 0 0 1.39881,0.08421l0.56747,-0.225l0.29567,0.50736a23.13287,23.13287 0 0 0 2.43412,3.4472a7.864,7.864 0 0 0 3.16627,2.44254a1.42434,1.42434 0 0 0 1.48162,-0.57332a1.59326,1.59326 0 0 0 0.31228,-0.81146a1.721,1.721 0 0 0 -0.02433,-0.4442l-0.11625,-0.52584c-0.33333,-1.41285 -0.644,-2.83107 -0.99578,-4.23924l-0.33146,-1.32794l0.81005,1.10549a30.37281,30.37281 0 0 0 2.60394,3.15387a13.85,13.85 0 0 0 1.4898,1.36817c0.502,0.38385 1.1635,0.79437 1.61846,0.672c0.21474,-0.05614 0.33544,-0.24444 0.466,-0.58385a6.35526,6.35526 0 0 0 0.34128,-0.9249a7.87843,7.87843 0 0 0 0.25544,-1.95156a9.40181,9.40181 0 0 0 -0.85262,-3.81164l-1.36887,-2.93446l2.13354,2.44979a34.37357,34.37357 0 0 0 2.98709,3.05469a12.14869,12.14869 0 0 0 1.63834,1.25075a2.92673,2.92673 0 0 0 0.79391,0.36022a0.379,0.379 0 0 0 0.2159,0.0117c0.02152,-0.00632 0.00561,-0.0014 0.03836,-0.04655a1.57922,1.57922 0 0 0 0.11977,-0.70385a6.77109,6.77109 0 0 0 -0.06971,-0.98221c-0.08772,-0.69613 -0.20725,-1.396 -0.34573,-2.09517q-0.41893,-2.09647 -0.94548,-4.1962c-0.68958,-2.8002 -1.48489,-5.57771 -2.14828,-8.43849c-0.16186,-0.71811 -0.32069,-1.43951 -0.42993,-2.196a10.60832,10.60832 0 0 1 -0.11111,-1.18595a4.13235,4.13235 0 0 1 0.03672,-0.69683a2.16957,2.16957 0 0 1 0.10737,-0.44163a1.52317,1.52317 0 0 1 0.33122,-0.52958a2.19259,2.19259 0 0 1 1.61823,-0.65263a4.37639,4.37639 0 0 1 1.34852,0.21006a9.29813,9.29813 0 0 1 2.16745,1.03086a11.8171,11.8171 0 0 1 1.85284,1.44653c0.14667,0.1317 0.28257,0.29216 0.42292,0.43812c0.1186,0.11392 0.18667,0.19439 0.29988,0.291a4.68336,4.68336 0 0 0 0.75578,0.50573a7.5765,7.5765 0 0 0 1.81144,0.69332a6.14463,6.14463 0 0 0 0.927,0.157a1.97759,1.97759 0 0 0 0.676,-0.04047c0.00982,-0.00748 -0.02527,0.003 -0.0138,0.02573c-0.055,0.01755 -0.06339,0.10386 -0.07392,0.131c-0.03228,0.0096 0.0145,0.1055 -0.00538,0.04585a0.65476,0.65476 0 0 1 -0.0269,-0.12163a5.23572,5.23572 0 0 0 -0.41707,-0.81988c-0.34994,-0.57613 -0.763,-1.1546 -1.19156,-1.72348c-0.85637,-1.1518 -1.77495,-2.236 -2.66336,-3.46381a4.17555,4.17555 0 0 1 -0.34877,-0.58877l-0.203,-0.49028q-0.207,-0.47122 -0.44233,-0.93169c-0.32046,-0.61215 -0.70408,-1.204 -1.09308,-1.83038a11.45759,11.45759 0 0 1 -1.02853,-2.02477a10.09419,10.09419 0 0 1 -0.33145,-1.09495l-0.117,-0.55485a4.002,4.002 0 0 0 -0.12655,-0.46549a8.69183,8.69183 0 0 0 -2.26734,-3.43574a4.33173,4.33173 0 0 0 -3.84626,-1.16326l-0.04515,-0.16187a4.2022,4.2022 0 0 1 2.21728,-0.08819a5.31067,5.31067 0 0 1 2.01892,0.99367a8.8516,8.8516 0 0 1 2.72324,3.5658a4.85933,4.85933 0 0 1 0.18947,0.57263l0.13614,0.50151a9.13755,9.13755 0 0 0 0.35391,0.96537a10.4427,10.4427 0 0 0 1.0435,1.78594c0.40912,0.58174 0.851,1.18244 1.24115,1.83342c0.19392,0.32631 0.3752,0.66175 0.53777,1.00654l0.23064,0.50572c0.03322,0.05918 0.13216,0.203 0.2255,0.33146c0.84864,1.09121 1.84067,2.18921 2.75434,3.33048c0.46269,0.57239 0.916,1.15741 1.34174,1.80442a6.56473,6.56473 0 0 1 0.59555,1.09847c0.0414,0.13029 0.07836,0.26806 0.11064,0.40373a1.646,1.646 0 0 1 -0.00678,0.58432a1.55752,1.55752 0 0 1 -0.31626,0.60865a2.30219,2.30219 0 0 1 -0.46151,0.33005a3.16752,3.16752 0 0 1 -1.45916,0.23228a6.64606,6.64606 0 0 1 -1.218,-0.16935a9.249,9.249 0 0 1 -2.24722,-0.82058a6.366,6.366 0 0 1 -1.05519,-0.687c-0.16561,-0.13333 -0.34432,-0.32023 -0.48561,-0.458c-0.11391,-0.11158 -0.21192,-0.22924 -0.3373,-0.33707a10.08406,10.08406 0 0 0 -1.58711,-1.19578a8.17446,8.17446 0 0 0 -1.74337,-0.8346c-0.57356,-0.2 -1.1401,-0.138 -1.14081,-0.04281c0.10854,-0.23275 -0.01988,0.1207 0.01287,0.39578a8.96794,8.96794 0 0 0 0.09123,0.97613c0.09473,0.67765 0.22479,1.37659 0.37028,2.07366c0.59017,2.79645 1.334,5.60741 1.97471,8.446c0.3193,1.421 0.63485,2.84815 0.86479,4.3024c0.11789,0.72631 0.21754,1.4594 0.28537,2.20325a8.10662,8.10662 0 0 1 0.03953,1.18524a2.68012,2.68012 0 0 1 -0.37636,1.38361a1.87986,1.87986 0 0 1 -0.33591,0.36187a1.50039,1.50039 0 0 1 -0.47555,0.21754a1.65382,1.65382 0 0 1 -0.85589,-0.02363a4.04619,4.04619 0 0 1 -1.16279,-0.55976a13.27944,13.27944 0 0 1 -1.74009,-1.47319a35.72881,35.72881 0 0 1 -2.91926,-3.31247l0.7649,-0.48467a10.16647,10.16647 0 0 1 0.75531,4.22333a8.54163,8.54163 0 0 1 -0.37543,2.11553a7.12872,7.12872 0 0 1 -0.39836,0.99951a1.34729,1.34729 0 0 1 -0.86034,0.88537a1.7154,1.7154 0 0 1 -1.18992,-0.211a6.14435,6.14435 0 0 1 -0.90689,-0.59578a14.29553,14.29553 0 0 1 -1.53659,-1.43413a38.2059,38.2059 0 0 1 -2.66663,-3.19458l0.47836,-0.22245c0.35251,1.40793 0.74572,2.80557 1.11647,4.20906l0.14316,0.53122a2.42639,2.42639 0 0 1 0.07181,0.636a2.34234,2.34234 0 0 1 -0.38853,1.21846a2.27023,2.27023 0 0 1 -2.3029,1.01309a8.57336,8.57336 0 0 1 -3.82825,-2.55272a24.32542,24.32542 0 0 1 -2.77774,-3.51363l0.86291,0.28233l-0.63882,0.21544a6.24525,6.24525 0 0 1 -0.71788,0.08585a2.60979,2.60979 0 0 1 -1.42431,-0.48a4.56578,4.56578 0 0 1 -1.48676,-2.11669a17.58006,17.58006 0 0 1 -0.94128,-4.48907a76.17854,76.17854 0 0 1 -0.22058,-8.87683l0.07883,-4.39035a21.23579,21.23579 0 0 0 -0.07228,-2.13682c-0.07953,-0.68116 -0.22456,-1.41471 -0.371,-2.11927c-0.6049,-2.84674 -1.4,-5.67594 -2.228,-8.49064l0.15784,-0.05741z" id="svg_12"/>
  <path d="m316.42936,304.63825a23.162,23.162 0 0 0 -0.43952,6.0612a17.34783,17.34783 0 0 0 0.458,2.97633a12.56431,12.56431 0 0 0 1.07624,2.76137l-0.69215,0.35882a14.40462,14.40462 0 0 1 -1.23156,-6.08342a23.33533,23.33533 0 0 1 0.82899,-6.0743zm5.42753,0a34.29269,34.29269 0 0 0 0.61286,5.60974a16.53918,16.53918 0 0 0 0.74665,2.68675a6.2634,6.2634 0 0 0 1.353,2.28675l-0.55859,0.54386a6.88538,6.88538 0 0 1 -1.34758,-2.64161a16.96524,16.96524 0 0 1 -0.578,-2.81212a34.4495,34.4495 0 0 1 -0.22834,-5.67337zm5.8984,-2.64582a28.64478,28.64478 0 0 0 0.87016,5.75829a11.54454,11.54454 0 0 0 2.49985,5.04367l-0.56958,0.53216a9.26263,9.26263 0 0 1 -1.51062,-2.63108a16.483,16.483 0 0 1 -0.79952,-2.8575a28.82644,28.82644 0 0 1 -0.49029,-5.84554zm20.5768,-230.02751c-4.13913,-0.17239 -13.41175,-4.14988 -13.41175,-4.14988l-0.00187,0.00117c-4.47737,-3.99082 -11.31564,-6.76506 -21.10919,-2.74031c-20.494,8.4221 -8.98374,34.53075 -8.98374,34.53075s9.96618,-4.63221 8.56246,-7.72036s-0.14035,-5.755 2.52675,-5.19361c2.66686,0.56139 9.12385,-3.64954 15.58084,-7.86072q0.46514,-0.3033 0.91232,-0.55508a9.62857,9.62857 0 0 1 7.65294,-0.61312c7.79456,2.45145 12.06372,-5.54076 8.27124,-5.69884z" id="svg_13"/>
  <path d="m317.178,84.03724s1.14588,4.484 0.801,6.89843s1.58556,2.217 2.242,-1.03477c1.72454,-8.54317 -2.861,-8.52622 -3.043,-5.86366zm23.17223,17.57813a6.95236,6.95236 0 0 1 1.4283,3.97947a13.16535,13.16535 0 0 1 -3.01689,0.19087c-2.58809,-0.91923 -4.62887,-4.17034 -4.62887,-4.17034s5.51752,-1.12251 6.21746,0zm96.11677,365.61263l-18.18373,8.84608s-6.97554,5.28841 1.781,6.58179c1.07861,0.15931 27.72321,-0.69931 27.72321,-0.69931l0.78107,-11.133a3.57774,3.57774 0 0 0 -3.65785,-3.80138l-8.4437,0.20582zm33.657,0l-18.18372,8.84608s-6.97555,5.28841 1.781,6.58179c1.07861,0.15931 27.72321,-0.69931 27.72321,-0.69931l0.78107,-11.133a3.57774,3.57774 0 0 0 -3.65785,-3.80138l-8.44371,0.20582z" id="svg_14"/>
  <path d="m460.83488,409.21787l0.85145,7.44341l0.75484,7.17908a132.59747,132.59747 0 0 0 2.21378,14.51536c1.04466,4.78637 2.0126,9.63332 2.92814,14.46764l1.39414,7.25558l1.508,7.23054l-0.073,-0.13076a21.2253,21.2253 0 0 0 5.27385,3.67714a5.89571,5.89571 0 0 0 2.99832,0.65216a2.57118,2.57118 0 0 0 1.32279,-0.51859a3.53222,3.53222 0 0 0 0.87742,-1.14969a9.76623,9.76623 0 0 0 0.69028,-3.0437c0.14362,-1.07133 0.22432,-2.156 0.31883,-3.23528c0.16116,-2.16442 0.26759,-4.334 0.34268,-6.50354c0.11368,-4.34052 0.09006,-8.6876 -0.197,-13.00567c-0.1635,-2.15459 -0.36046,-4.30988 -0.71835,-6.42167a25.86946,25.86946 0 0 0 -1.57027,-6.09675l-0.0793,-0.182l0.00234,-0.18643l0.11158,-8.73228l0.18222,-8.732l0.53216,0.67086c-3.211,-0.775 -6.41255,-1.64606 -9.6759,-2.50756l-9.989,-2.64585zm-0.10947,-0.12725l9.88359,1.90338c3.36089,0.65473 6.78353,1.3001 10.19658,2.04161l0.52584,0.11415l0.00655,0.55672l0.10339,8.73345l0.03252,8.733l-0.077,-0.36819a27.39593,27.39593 0 0 1 1.68887,6.54939c0.34338,2.1974 0.49426,4.399 0.62361,6.5971a118.99618,118.99618 0 0 1 -0.10035,13.16918c-0.14011,2.18921 -0.32046,4.37608 -0.6035,6.55406c-0.14877,1.08864 -0.283,2.17728 -0.48233,3.26124a10.75727,10.75727 0 0 1 -0.91086,3.27224a4.29543,4.29543 0 0 1 -1.15788,1.37893a3.28594,3.28594 0 0 1 -1.70782,0.59555a6.94036,6.94036 0 0 1 -3.31106,-0.78619a22.95963,22.95963 0 0 1 -5.38262,-3.8451l-0.0545,-0.04982l-0.01848,-0.08093l-1.65822,-7.19757l-1.77185,-7.17282c-1.18033,-4.78754 -2.37119,-9.54911 -3.37071,-14.3956a113.20424,113.20424 0 0 1 -1.88138,-14.724c-0.13146,-2.50336 -0.24444,-5.06472 -0.33731,-7.55171l-0.23508,-7.28807zm-30.85268,0.60023l0.30175,7.48575l0.22479,7.2151a132.54274,132.54274 0 0 0 1.14034,14.63887c0.68981,4.85022 1.29846,9.75519 1.85588,14.64377l0.85683,7.33838l0.97215,7.322l-0.06316,-0.13567a21.22093,21.22093 0 0 0 4.98917,4.05491a5.89275,5.89275 0 0 0 2.94219,0.87087a2.56994,2.56994 0 0 0 1.35717,-0.41964a3.53008,3.53008 0 0 0 0.95975,-1.08209a9.77192,9.77192 0 0 0 0.91227,-2.98476c0.222,-1.058 0.38222,-2.13377 0.556,-3.20323c0.31976,-2.1464 0.58549,-4.3024 0.81987,-6.46073c0.43274,-4.32018 0.72888,-8.65719 0.76022,-12.98485c-0.00467,-2.16068 -0.04234,-4.32462 -0.2442,-6.457a25.86887,25.86887 0 0 0 -1.11742,-6.19571l-0.066,-0.18736l0.01614,-0.18573l0.75344,-8.70047l0.82432,-8.69508l0.48139,0.70829c-3.14545,-1.00911 -6.2743,-2.11319 -9.46536,-3.21235l-9.76753,-3.37327zm-0.09965,-0.1352l9.71683,2.62522c3.30358,0.90011 6.66962,1.79554 10.01881,2.78593l0.516,0.15251l-0.03439,0.55579l-0.53941,8.7173l-0.60981,8.71193l-0.04983,-0.37286a27.38885,27.38885 0 0 1 1.20279,6.65582c0.18082,2.21681 0.16936,4.42333 0.13661,6.62517a119.03431,119.03431 0 0 1 -1.06852,13.12614c-0.30082,2.17283 -0.64163,4.34052 -1.084,6.49184c-0.2283,1.07484 -0.44256,2.15038 -0.72092,3.2168a10.75571,10.75571 0 0 1 -1.14923,3.19644a4.29228,4.29228 0 0 1 -1.25589,1.29005a3.286,3.286 0 0 1 -1.74734,0.46829a6.93593,6.93593 0 0 1 -3.24417,-1.02759a22.95756,22.95756 0 0 1 -5.08507,-4.23035l-0.05053,-0.0538l-0.01286,-0.08234l-1.1242,-7.3l-1.23951,-7.28341c-0.825,-4.86146 -1.66244,-9.69765 -2.3029,-14.60472a113.21017,113.21017 0 0 1 -0.7932,-14.82225c0.0531,-2.5064 0.12865,-5.06894 0.21918,-7.55639l0.30156,-7.28552z" id="svg_15"/>
  <path d="m482.82005,413.02953c-35.89271,12.98114 -62.67081,-8.82725 -62.67081,-8.82725c3.3192,-19.60158 14.90957,-42.2442 14.90957,-42.2442c14.08432,10.49594 42.79131,5.80416 42.79131,5.80416a128.80172,128.80172 0 0 1 4.96993,45.26729z" id="svg_16"/>
  <path d="m434.98307,361.99419a24.92647,24.92647 0 0 1 -1.64512,-7.20505a49.25224,49.25224 0 0 1 -0.12,-7.40247a80.33406,80.33406 0 0 1 2.12558,-14.63419c0.244,-1.21051 0.5607,-2.40137 0.88841,-3.58942l0.95929,-3.57142c0.745,-2.3471 1.44349,-4.71291 2.26195,-7.03569c0.86455,-2.305 1.69378,-4.6252 2.625,-6.90283l2.93282,-6.77184l0.54315,0.83017a12.60709,12.60709 0 0 1 -4.74473,-1.42618a17.66953,17.66953 0 0 1 -3.967,-2.78031a23.70079,23.70079 0 0 1 -3.18148,-3.59925c-0.484,-0.63555 -0.90338,-1.31671 -1.34337,-1.981c-0.38736,-0.69613 -0.82221,-1.36676 -1.16911,-2.08325a50.53421,50.53421 0 0 1 -3.43106,-8.87052a83.07223,83.07223 0 0 1 -1.9815,-9.29344a127.42892,127.42892 0 0 1 -1.31553,-18.94711c-0.004,-1.585 0.01777,-3.16908 0.08725,-4.75128c0.05543,-1.5829 0.09169,-3.16768 0.20584,-4.74684l0.15018,-2.371l0.07765,-1.18524a4.48862,4.48862 0 0 1 0.23743,-1.36256a3.885,3.885 0 0 1 1.92138,-2.16956a4.73427,4.73427 0 0 1 1.33074,-0.40421l1.16045,-0.232l9.28525,-1.857a3.97257,3.97257 0 0 1 2.90663,0.48795a3.94291,3.94291 0 0 1 1.88114,3.1527l0.003,0.38035l-0.0117,0.29754l-0.04538,1.17121l-0.04748,2.3443c-0.01638,3.1272 0.08631,6.25605 0.34385,9.37156a91.277,91.277 0 0 0 1.28911,9.27754a53.31408,53.31408 0 0 0 6.49839,17.42713a32.94727,32.94727 0 0 0 13.61314,12.52685l-0.03438,-0.00726l0.00889,0.00024l0,0.16818l-0.00889,0.00024l-0.01521,0.00047l-0.01941,-0.008a30.4268,30.4268 0 0 1 -8.11428,-4.93981a34.72549,34.72549 0 0 1 -6.32973,-7.16271a42.6014,42.6014 0 0 1 -4.38661,-8.51427a63.09089,63.09089 0 0 1 -2.76113,-9.16573a85.45848,85.45848 0 0 1 -1.87881,-18.98991l0.05217,-2.38851l0.048,-1.19437l0.01216,-0.29356l-0.0021,-0.21146a2.08427,2.08427 0 0 0 -0.06269,-0.41263a2.20527,2.20527 0 0 0 -2.60839,-1.60559l-9.30794,1.73612a11.95893,11.95893 0 0 0 -2.09658,0.47157a2.31061,2.31061 0 0 0 -1.15718,1.27367a10.83058,10.83058 0 0 0 -0.25731,2.13541l-0.19017,2.35131c-0.149,1.56653 -0.22058,3.1368 -0.3111,4.7066c-0.1048,1.56981 -0.16187,3.14054 -0.19369,4.71222a122.44268,122.44268 0 0 0 0.70315,18.83366a74.7166,74.7166 0 0 0 1.83951,9.24128a42.30284,42.30284 0 0 0 3.44136,8.73672a24.51294,24.51294 0 0 0 5.71922,7.31265a16.7393,16.7393 0 0 0 3.85772,2.49774a11.71706,11.71706 0 0 0 4.30146,1.153l0.85987,0.03041l-0.31672,0.8l-2.69984,6.82c-0.86736,2.284 -1.66805,4.59152 -2.52628,6.8778l-2.3036,6.94962l-0.99882,3.51948c-0.341,1.17145 -0.67157,2.3457 -0.92887,3.537l-0.83531,3.56042l-0.68233,3.58989c-0.262,1.19273 -0.38456,2.40394 -0.56865,3.60837c-0.196,1.20443 -0.3069,2.41588 -0.40327,3.62966c-0.35087,4.8245 -0.509,9.81952 0.98315,14.47442l-0.15154,0.07202zm52.24116,-64.41409c2.20839,2.218 4.35971,4.48789 6.54166,6.73a40.58963,40.58963 0 0 1 5.7356,7.53674a39.81391,39.81391 0 0 1 5.33069,18.12093c0.75882,12.50813 0.45192,25.0434 0.38525,37.55013q-0.02,4.69257 -0.11719,9.38513c-0.00959,0.39976 0.00608,0.7628 -0.02432,1.19273a4.03044,4.03044 0 0 1 -0.28515,1.24233a4.22184,4.22184 0 0 1 -1.60582,1.96441a4.34734,4.34734 0 0 1 -2.44652,0.69847l-2.345,0.043l-4.69022,0.09193l-1.17262,0.02293a4.90513,4.90513 0 0 1 -1.33285,-0.15673a4.48391,4.48391 0 0 1 -3.25142,-3.98988l-0.20491,-2.33635l-0.40209,-4.67315l-1.52632,-18.69872q-0.7263,-9.35216 -1.31951,-18.7139l1.60676,0.11228c-1.33074,5.68647 -2.60652,11.38464 -3.9824,17.06106c-1.356,5.68085 -2.73236,11.357 -4.18568,17.01684l-0.16421,-0.03579c1.0318,-5.7515 2.14056,-11.48616 3.2692,-17.21637c1.10922,-5.73443 2.31833,-11.44733 3.47247,-17.17193l1.12279,-5.56788l0.4842,5.68039q0.79683,9.34724 1.47975,18.7029l1.273,18.71858l0.29778,4.6811l0.14479,2.34079a3.146,3.146 0 0 0 0.6566,1.79577a3.24,3.24 0 0 0 1.57846,1.1001a3.67235,3.67235 0 0 0 0.98361,0.15251l1.17262,0.02292l4.69022,0.09193l2.345,0.043a3.44849,3.44849 0 0 0 3.38522,-2.05868a5.5083,5.5083 0 0 0 0.334,-2.17494c0.11883,-3.12277 0.1869,-6.2474 0.24327,-9.372c0.174,-12.50626 -0.71461,-24.99264 -1.37636,-37.45867a40.35229,40.35229 0 0 0 -10.14512,-25.21065c-2.025,-2.38476 -4.08088,-4.74146 -6.07968,-7.15031l0.12445,-0.11295z" id="svg_17"/>
  <path d="m462.51893,284.96947a20.83708,20.83708 0 0 1 1.94663,3.67817a5.75,5.75 0 0 1 -7.87651,-8.37871a4.82484,4.82484 0 0 1 0.84322,-0.65486a9.86572,9.86572 0 0 0 0.49344,0.96871a11.55772,11.55772 0 0 0 4.59322,4.38669zm3.48062,1.30994a0.01221,0.01221 0 0 1 0,0.01774a6.06839,6.06839 0 0 1 -0.69078,-0.19711a6.04323,6.04323 0 0 0 0.69078,0.17937z" id="svg_18"/>
  <circle cx="454.669" cy="291.315" r="5.752" id="svg_19"/>
  <path d="m455.59468,303.73513c-2.29592,2.19517 -8.358,2.64382 -8.358,2.64382s-1.88738,-8.7629 0.40853,-10.95807a5.75153,5.75153 0 0 1 7.94943,8.31425l0.00004,0zm1.76118,-24.08649a11.33059,11.33059 0 0 1 -1.36185,-5.45255a15.61149,15.61149 0 0 1 1.07835,-5.59852a19.523,19.523 0 0 1 2.792,-4.97444a21.14542,21.14542 0 0 1 3.96111,-4.0755a30.39389,30.39389 0 0 1 9.98794,-5.08016a26.23207,26.23207 0 0 1 11.10113,-1.07414a15.29376,15.29376 0 0 1 5.41817,1.829a11.60149,11.60149 0 0 1 4.20229,4.04439a12.13035,12.13035 0 0 1 1.76,5.61209a15.02212,15.02212 0 0 1 -0.81917,5.78027a20.39153,20.39153 0 0 1 -2.67435,5.10005a2.94607,2.94607 0 0 0 -0.28888,0.45122a1.60848,1.60848 0 0 0 -0.13661,0.44374a1.85975,1.85975 0 0 0 0.11906,0.967a2.50077,2.50077 0 0 0 0.11041,0.23391l0.16491,0.38058a3.64791,3.64791 0 0 1 0.277,0.793a3.83767,3.83767 0 0 1 -0.007,1.65354a4.9958,4.9958 0 0 1 -1.6077,2.64277a6.96521,6.96521 0 0 1 -2.58452,1.44209a6.06318,6.06318 0 0 1 -5.51081,-0.8049l0.09591,-0.138a5.88193,5.88193 0 0 0 5.12882,0.14245a4.99669,4.99669 0 0 0 3.18732,-3.52884a2.48168,2.48168 0 0 0 -0.0559,-1.09332a2.26189,2.26189 0 0 0 -0.2138,-0.49707l-0.11743,-0.25122a3.886,3.886 0 0 1 -0.208,-0.38082a3.3674,3.3674 0 0 1 -0.3111,-1.73635a3.16268,3.16268 0 0 1 0.2159,-0.89a4.57749,4.57749 0 0 1 0.40584,-0.74362a20.80233,20.80233 0 0 0 2.31178,-4.756a12.25349,12.25349 0 0 0 -0.6,-10.0146a12.83557,12.83557 0 0 0 -8.43076,-5.777a20.20428,20.20428 0 0 0 -10.76617,0.68865a27.11114,27.11114 0 0 0 -9.25087,5.62893c-0.69753,0.57169 -1.28957,1.25144 -1.94219,1.86664c-0.58619,0.67718 -1.20817,1.3249 -1.73986,2.04442a21.07977,21.07977 0 0 0 -2.77026,4.567a14.18118,14.18118 0 0 0 -0.76771,10.48594l-0.153,0.06937z" id="svg_20"/>
  <path d="m464.5436,288.61671a11.21545,11.21545 0 0 1 1.28279,4.07831a6.19689,6.19689 0 0 1 -0.2035,2.243a5.1025,5.1025 0 0 1 -0.44889,1.07928a5.39093,5.39093 0 0 0 -0.39625,0.86057a4.11812,4.11812 0 0 0 0.247,3.4568a3.963,3.963 0 0 0 0.51437,0.70946c0.23415,0.22947 0.45427,0.47391 0.69707,0.69216a10.70086,10.70086 0 0 0 1.5263,1.20957a10.02863,10.02863 0 0 0 3.56813,1.51086a11.52985,11.52985 0 0 0 3.99738,-0.02105a18.11546,18.11546 0 0 0 7.35943,-3.585c0.54713,-0.42315 1.09449,-0.84232 1.60091,-1.31717l0.774,-0.68958l0.38455,-0.34666l0.18971,-0.17193a1.26882,1.26882 0 0 0 0.11579,-0.13871a1.06906,1.06906 0 0 0 -0.02223,-1.27882a14.21557,14.21557 0 0 1 -1.18945,-1.80675a18.27123,18.27123 0 0 1 -2.1574,-8.38l-0.01427,-0.54385a1.07812,1.07812 0 0 0 -0.03345,-0.28748a0.72624,0.72624 0 0 0 -0.25543,-0.385a0.73915,0.73915 0 0 0 -0.43766,-0.163a0.77811,0.77811 0 0 0 -0.23415,0.02947l-0.45145,0.14549c-0.59181,0.16866 -1.30969,0.43953 -1.97775,0.67157a19.63249,19.63249 0 0 1 -2.06735,0.62105a22.33206,22.33206 0 0 1 -8.569,0.418l-0.16772,-0.05029a0.33378,0.33378 0 0 0 0.18339,0.04234l-0.05169,-0.00257a14.0442,14.0442 0 0 1 -1.56022,-0.34643c-0.49824,-0.15438 -0.98244,-0.32514 -1.4629,-0.51414a15.79223,15.79223 0 0 1 -2.80721,-1.31414l0.08491,-0.145a11.83392,11.83392 0 0 0 1.43623,0.46666c0.48889,0.13334 0.98245,0.25216 1.47741,0.36327l1.48115,0.31743a13.03106,13.03106 0 0 0 1.45472,0.15883l-0.05146,-0.00258a0.73189,0.73189 0 0 1 0.27274,0.06035l-0.16725,-0.05029a26.24953,26.24953 0 0 0 4.054,-0.16725a25.58461,25.58461 0 0 0 3.96416,-0.85262a19.24525,19.24525 0 0 0 1.91857,-0.6456c0.64327,-0.24374 1.22127,-0.49286 1.96535,-0.72888l0.545,-0.17287a2.58184,2.58184 0 0 1 0.8,-0.09543a2.54109,2.54109 0 0 1 2.353,1.89658a2.85194,2.85194 0 0 1 0.07275,0.7497l-0.00538,0.50245a17.91368,17.91368 0 0 0 1.63366,7.76948a14.35357,14.35357 0 0 0 0.99531,1.75834a2.20734,2.20734 0 0 1 -0.21684,2.61961a2.29337,2.29337 0 0 1 -0.24748,0.23672l-0.215,0.15953l-0.42666,0.31439l-0.84794,0.63227c-0.55321,0.43531 -1.14922,0.81589 -1.74173,1.19764a28.75331,28.75331 0 0 1 -7.58,3.72627a12.299,12.299 0 0 1 -4.31036,0.47321a9.71594,9.71594 0 0 1 -4.2128,-1.38642a11.93071,11.93071 0 0 1 -1.76489,-1.36278c-0.26994,-0.25427 -0.51111,-0.53544 -0.76654,-0.8021a5.444,5.444 0 0 1 -0.68514,-0.99952a5.29409,5.29409 0 0 1 -0.1345,-4.62824a6.51454,6.51454 0 0 1 0.564,-0.99531a4.015,4.015 0 0 0 0.42549,-0.81589a5.72327,5.72327 0 0 0 0.3759,-1.879a13.188,13.188 0 0 0 -0.58923,-4.0362l0.156,-0.06211zm27.99307,93.01745c-0.09263,0.811 -0.34222,1.76348 -0.50713,2.63645c-0.1738,0.89473 -0.38993,1.77612 -0.57823,2.66406c-0.40117,1.76582 -0.82151,3.53515 -1.16092,5.276l0.01637,-0.15813a7.28214,7.28214 0 0 0 0.15345,1.30361a2.27911,2.27911 0 0 0 0.17029,0.509c0.07392,0.14339 0.09894,0.05029 -0.11322,0.015c-0.16888,0.007 -0.04725,0.01357 0.06714,-0.09731a2.93767,2.93767 0 0 0 0.39531,-0.42292a9.72913,9.72913 0 0 0 0.79157,-1.11133c0.25052,-0.39812 0.50877,-0.80443 0.7504,-1.22173a2.3772,2.3772 0 0 1 0.64093,-0.76724a2.03,2.03 0 0 1 0.9518,-0.39041a2.00391,2.00391 0 0 1 1.80231,0.67765a1.88536,1.88536 0 0 1 0.19181,2.22313l-0.19836,0.31672l-0.39742,0.63181l-0.83344,1.24021a11.99193,11.99193 0 0 1 -1.97868,2.28559a1.9592,1.9592 0 0 0 -0.68514,1.05542a1.77757,1.77757 0 0 0 0.14713,1.185c0.33473,0.61356 1.36092,0.51532 2.21611,0.28117a16.72392,16.72392 0 0 0 2.62289,-1.04911a14.139,14.139 0 0 0 2.38991,-1.40045a7.574,7.574 0 0 0 2.71856,-4.42894c0.76513,-3.52557 0.05941,-7.47359 -1.10782,-11.03658l0.68373,0.45333c-1.45893,-0.05731 -2.937,-0.18175 -4.45234,-0.28725c-1.51015,-0.09925 -3.07574,-0.25246 -4.69701,-0.38275zm-0.1062,-0.1448c1.4463,-0.13029 2.94827,-0.2835 4.50544,-0.38268c1.55226,-0.1055 3.14148,-0.22994 4.75011,-0.28725l0.47555,-0.01684l0.20818,0.4704a23.48554,23.48554 0 0 1 1.7422,5.85115a14.99289,14.99289 0 0 1 -0.18713,6.21956a9.33585,9.33585 0 0 1 -3.57282,5.27175a13.12736,13.12736 0 0 1 -2.79551,1.38968a15.53954,15.53954 0 0 1 -2.96394,0.81941a5.60328,5.60328 0 0 1 -1.62852,0.033a1.88471,1.88471 0 0 1 -1.48793,-1.01917a2.62747,2.62747 0 0 1 -0.08561,-1.698a2.65531,2.65531 0 0 1 0.95133,-1.33916a8.96875,8.96875 0 0 0 1.86524,-2.16395c0.27134,-0.40186 0.51508,-0.82338 0.74619,-1.25144l0.341,-0.64537l0.15977,-0.32819a1.15377,1.15377 0 0 0 0.07836,-0.26151a1.02959,1.02959 0 0 0 -0.32678,-0.93683a0.9386,0.9386 0 0 0 -0.8835,-0.20725a0.82551,0.82551 0 0 0 -0.37356,0.21848a1.10322,1.10322 0 0 0 -0.23625,0.4021c-0.20421,0.45917 -0.4021,0.92513 -0.64982,1.375a10.69517,10.69517 0 0 1 -0.83741,1.34548a4.45372,4.45372 0 0 1 -0.607,0.65589a1.74064,1.74064 0 0 1 -1.24958,0.4793a1.344,1.344 0 0 1 -0.81215,-0.385a1.89245,1.89245 0 0 1 -0.36491,-0.5242a3.80752,3.80752 0 0 1 -0.27882,-0.89285a8.74084,8.74084 0 0 1 -0.14176,-1.62805l-0.00023,-0.08819l0.01684,-0.07017c0.43368,-1.80957 0.99227,-3.54171 1.58875,-5.2687c0.313,-0.858 0.61122,-1.71881 0.96163,-2.56324c0.35932,-0.86652 0.64095,-1.65106 1.09264,-2.57316z" id="svg_21"/>
  <ellipse cx="477.99" cy="264.438" fill="#1c1c1c" rx="1.725" ry="1.311" transform="rotate(-22.814 477.99 264.438)" id="svg_22"/>
  <ellipse cx="471.755" cy="258.157" fill="#1c1c1c" rx="1.725" ry="1.311" transform="rotate(-22.814 471.755 258.157)" id="svg_23"/>
  <path d="m499.93751,278.58649c1.65656,-1.10425 8.28242,-5.93556 -3.58908,-17.39255c0,0 1.51876,-12.69941 -6.07355,-14.07982c0,0 -3.04614,-0.41414 -5.66391,3.5889c0,0 -4.80566,-11.75524 -7.9911,3.30189l5.55719,-0.48847s12.65335,11.81852 6.7176,12.92277s-5.50066,10.62889 -5.50066,10.62889s7.268,-2.37287 7.41969,-0.0131a3.48562,3.48562 0 0 1 1.51314,1.94769c0.64443,2.19445 -1.14618,4.65233 -3.9991,5.48979a5.87028,5.87028 0 0 1 -4.945,-0.59669a19.2944,19.2944 0 0 0 1.52476,10.3945c2.71737,-0.19921 23.15587,-2.16094 15.03,-15.7038l0.00002,0z" id="svg_24"/>
  <circle cx="487.162" cy="292.528" r="5.752" id="svg_25"/>
  <circle cx="488.066" cy="301.547" r="5.752" id="svg_26"/>
  <path d="m497.683,309.46066c0,3.17648 -3.865,7.86809 -3.865,7.86809s-7.638,-4.69161 -7.638,-7.86809a5.75153,5.75153 0 0 1 11.50305,0l-0.00005,0zm-56.2115,28.11315a29.12591,29.12591 0 0 0 0.56191,7.6845a22.52909,22.52909 0 0 0 2.74165,7.10395a19.21391,19.21391 0 0 0 4.98965,5.71411a29.22686,29.22686 0 0 0 6.64583,3.88448c-1.21214,-0.44475 -2.469,-0.82827 -3.64416,-1.39264a21.79274,21.79274 0 0 1 -3.35986,-2.02317a18.80074,18.80074 0 0 1 -5.29083,-5.79293a21.72389,21.72389 0 0 1 -2.65932,-7.38472a23.04429,23.04429 0 0 1 0.01513,-7.79358z" id="svg_27"/>
  <path d="m446.50689,344.568a18.98164,18.98164 0 0 0 2.61006,6.10468a22.87955,22.87955 0 0 0 4.32816,4.97945a28.68354,28.68354 0 0 0 5.50371,3.69025c0.96795,0.54819 2.01578,0.938 3.02349,1.42079l3.14241,1.19771c-1.0918,-0.25826 -2.18291,-0.544 -3.2719,-0.84445c-1.04676,-0.41589 -2.1347,-0.75086 -3.15437,-1.24416a26.33725,26.33725 0 0 1 -5.74508,-3.641a21.5528,21.5528 0 0 1 -4.32957,-5.2553a15.56255,15.56255 0 0 1 -2.10691,-6.40797zm38.79865,-11.04263a10.1266,10.1266 0 0 1 0.05841,-2.91125a11.483,11.483 0 0 1 0.30576,-1.413a7.58224,7.58224 0 0 1 0.51019,-1.38139a7.58162,7.58162 0 0 1 0.07319,1.47076a11.46841,11.46841 0 0 1 -0.1316,1.43979a10.12,10.12 0 0 1 -0.81595,2.79509z" id="svg_28"/>
  <path d="m480.97316,326.5312c0.67521,1.26105 1.23641,2.51858 1.906,3.71277a11.42358,11.42358 0 0 0 2.42639,3.2814a4.265,4.265 0 0 1 -1.8219,-1.16112a7.62724,7.62724 0 0 1 -1.27723,-1.75294a10.2073,10.2073 0 0 1 -0.82616,-1.98094a8.85386,8.85386 0 0 1 -0.4071,-2.09917zm-33.0293,106.50287a7.31853,7.31853 0 0 1 -0.3522,2.444a8.22507,8.22507 0 0 1 -0.44369,1.14a5.56922,5.56922 0 0 1 -0.64108,1.07878a5.57265,5.57265 0 0 1 0.07741,-1.2526a8.25312,8.25312 0 0 1 0.2748,-1.19208a7.3209,7.3209 0 0 1 1.08476,-2.2181zm32.62994,-1.86483a3.12155,3.12155 0 0 1 -0.24876,1.57208a3.34828,3.34828 0 0 1 -0.38246,0.67767a0.44269,0.44269 0 1 1 -0.54327,-0.23011a3.35734,3.35734 0 0 1 0.21956,-0.74593a3.1247,3.1247 0 0 1 0.95493,-1.27371zm-48.41202,8.09195a7.42708,7.42708 0 0 0 1.86975,-0.90849a4.9337,4.9337 0 0 0 1.35992,-1.40249a6.30031,6.30031 0 0 0 0.74136,-1.83176a18.736,18.736 0 0 0 0.30787,-2.08438c0.10767,0.34552 0.17136,0.703 0.25263,1.06471a10.61561,10.61561 0 0 1 0.02288,1.10693a4.681,4.681 0 0 1 -0.67908,2.15757a4.20732,4.20732 0 0 1 -3.87533,1.89791zm33.23122,0a7.42708,7.42708 0 0 0 1.86975,-0.90849a4.929,4.929 0 0 0 1.35992,-1.40249a6.30059,6.30059 0 0 0 0.74136,-1.83176a18.81963,18.81963 0 0 0 0.30822,-2.08438c0.10767,0.34552 0.171,0.703 0.25228,1.06471a10.61235,10.61235 0 0 1 0.02322,1.10693a4.68121,4.68121 0 0 1 -0.67943,2.15757a4.20731,4.20731 0 0 1 -3.87532,1.89791z" id="svg_29"/>
  <path fill="#020202" d="m474.84054,254.43636a2.83708,2.83708 0 0 1 3.27691,2.29821a2.59805,2.59805 0 0 1 -0.12772,1.42244c-0.20678,-0.4421 -0.342,-0.8449 -0.53823,-1.20677a4.45436,4.45436 0 0 0 -0.64888,-0.97542a7.63474,7.63474 0 0 0 -1.96208,-1.53846zm4.99502,5.83664a2.83707,2.83707 0 0 1 3.27691,2.29822a2.59811,2.59811 0 0 1 -0.12772,1.42243c-0.20654,-0.4421 -0.342,-0.8449 -0.53823,-1.20676a4.4465,4.4465 0 0 0 -0.64888,-0.97543a7.631,7.631 0 0 0 -1.96208,-1.53846z" id="svg_30"/>
  <path d="m464.46556,275.8641c3.46342,0 3.46915,-5.38256 0,-5.38256c-3.46342,0 -3.46916,5.38256 0,5.38256zm20.86637,7.80471a1.34645,1.34645 0 0 0 0,-2.69128a1.34645,1.34645 0 0 0 0,2.69128zm-18.43234,-15.64129a7.35985,7.35985 0 0 1 -1.38337,-1.65729a3.109,3.109 0 0 1 -0.50128,-2.243a1.43026,1.43026 0 0 1 0.26573,-0.59625a1.48458,1.48458 0 0 1 0.44163,-0.4697a3.29285,3.29285 0 0 1 1.08115,-0.54643c0.37146,-0.08 0.74713,-0.16 1.11765,-0.204c0.36795,-0.02409 0.7373,-0.03018 1.10525,-0.043l-0.04187,0.00164c1.12864,-0.10176 2.27272,-0.23485 3.39995,-0.40187c0.56116,-0.09567 1.12513,-0.18549 1.67577,-0.32374a3.44925,3.44925 0 0 0 1.53308,-0.69589a3.10562,3.10562 0 0 1 -1.39928,1.07226a11.04179,11.04179 0 0 1 -1.67086,0.59064a21.53007,21.53007 0 0 1 -3.4617,0.636l-0.04258,0.00164c-0.338,0.01778 -0.67484,0.0421 -1.01308,0.04842c-0.32959,0.03251 -0.65052,0.09614 -0.96958,0.15321a1.75909,1.75909 0 0 0 -1.30992,0.9773a2.79266,2.79266 0 0 0 0.21169,1.83693a10.51354,10.51354 0 0 0 0.96162,1.86313z" id="svg_31"/>
  <path fill="#020202" d="m430.97166,239.71328a26.8552,26.8552 0 0 1 -8.48947,-1.92605a10.52818,10.52818 0 0 1 -2.02571,-1.07508a2.58828,2.58828 0 0 1 -0.94571,-1.11554a2.62822,2.62822 0 0 1 -0.0655,-0.272l-0.018,-0.09731l-0.05217,-0.21052c-0.04187,-0.14994 -0.0945,-0.30924 -0.14923,-0.46853c-0.47087,-1.28794 -1.04163,-2.61354 -1.60887,-3.92112q-0.86631,-1.96383 -1.67273,-3.97117a27.02374,27.02374 0 0 1 -1.382,-4.21258a2.82618,2.82618 0 0 1 -0.03929,-0.35485a1.34573,1.34573 0 0 1 0.01941,-0.27531a0.88772,0.88772 0 0 1 0.07649,-0.23065a0.70083,0.70083 0 0 1 0.31813,-0.31438a0.68862,0.68862 0 0 1 0.4187,-0.06222a0.91436,0.91436 0 0 1 0.21825,0.06667a1.22749,1.22749 0 0 1 0.2159,0.13356c0.11836,0.08983 0.15321,0.1324 0.23392,0.20094c0.28256,0.24818 0.54549,0.50315 0.80443,0.76139c0.51789,0.51555 1.01566,1.04139 1.50454,1.57378l2.89844,3.21l-0.48537,0.29287c-0.23626,-0.70105 -0.44164,-1.40116 -0.62619,-2.1146a13.277,13.277 0 0 1 -0.433,-2.1871a2.50868,2.50868 0 0 1 0.12561,-1.23531a0.752,0.752 0 0 1 0.73754,-0.42572a1.60315,1.60315 0 0 1 0.64583,0.21731a7.30361,7.30361 0 0 1 1.74033,1.5029a19.79545,19.79545 0 0 1 2.46266,3.72837a30.89357,30.89357 0 0 1 1.81307,4.06778l-0.90361,-0.46011a16.79974,16.79974 0 0 1 1.709,-0.4966a12.342,12.342 0 0 1 1.76489,-0.29731a8.49053,8.49053 0 0 1 1.87413,0.01778a4.194,4.194 0 0 1 1.97728,0.7525l-1.41238,0.50573c-0.00982,0.03111 0.003,-0.13053 -0.01427,-0.2145a2.04349,2.04349 0 0 0 -0.06853,-0.31953a2.799,2.799 0 0 0 -0.31228,-0.6442a4.60037,4.60037 0 0 0 -1.14642,-1.12794c-0.2304,-0.16584 -0.47718,-0.3214 -0.731,-0.46993a4.85972,4.85972 0 0 1 -0.97894,-0.71368a3.70021,3.70021 0 0 1 -1.12513,-2.31178a4.45629,4.45629 0 0 1 0.03205,-1.21519c0.03134,-0.193 0.06877,-0.38292 0.116,-0.56724a3.31771,3.31771 0 0 1 0.2276,-0.67321a1.77024,1.77024 0 0 1 1.71717,-0.94408a1.79707,1.79707 0 0 1 0.93472,0.352a2.0707,2.0707 0 0 1 0.5352,0.63111a13.50448,13.50448 0 0 0 2.32582,2.7906c0.90244,0.81075 2.01962,1.48068 3.0961,2.32278a7.205,7.205 0 0 1 2.94358,4.28485c0.05427,0.34081 0.12982,0.70034 0.16117,1.02127c0.07275,0.65029 0.1497,1.30244 0.19345,1.96348a7.52506,7.52506 0 0 1 -0.047,2.04466a1.19586,1.19586 0 0 1 -0.70315,0.86595a3.36683,3.36683 0 0 1 -1.00607,0.19157a0.09012,0.09012 0 0 1 -0.09754,-0.08163a0.09319,0.09319 0 0 1 0.07111,-0.09591a3.14233,3.14233 0 0 0 0.87952,-0.31227a0.8098,0.8098 0 0 0 0.39789,-0.65777a7.18022,7.18022 0 0 0 -0.20748,-1.85869l-0.39719,-1.913c-0.06362,-0.32607 -0.15555,-0.6 -0.229,-0.89963a6.61123,6.61123 0 0 0 -0.35158,-0.82643a7.08015,7.08015 0 0 0 -2.45493,-2.577c-1.02291,-0.71531 -2.20278,-1.32746 -3.30639,-2.20043a13.15189,13.15189 0 0 1 -2.821,-3.08792c-0.13964,-0.22362 -0.07321,-0.10034 -0.08046,-0.12116a0.07433,0.07433 0 0 0 0.0283,0.01777c0.00491,0.01123 0.06807,-0.00725 0.098,-0.0559c0.02947,-0.07719 -0.04164,0.14853 -0.06222,0.26081c-0.03041,0.13334 -0.0517,0.2648 -0.06994,0.39509a3.27543,3.27543 0 0 0 -0.01427,0.7394a1.75954,1.75954 0 0 0 0.54409,1.14151a2.89564,2.89564 0 0 0 0.60256,0.43531a8.3957,8.3957 0 0 1 0.91016,0.60093a6.41169,6.41169 0 0 1 1.5663,1.67179a4.58365,4.58365 0 0 1 0.4966,1.13449a3.79134,3.79134 0 0 1 0.11275,0.64233a2.69828,2.69828 0 0 1 -0.03509,0.76279a0.86435,0.86435 0 0 1 -1.40583,0.51158l-0.00678,-0.00585a4.08319,4.08319 0 0 0 -2.63739,-0.528a15.44427,15.44427 0 0 0 -3.14476,0.51345l-0.0414,0.01146a0.70814,0.70814 0 0 1 -0.86268,-0.47158a41.03706,41.03706 0 0 0 -1.462,-4.01748a17.68069,17.68069 0 0 0 -2.06758,-3.70873a6.14535,6.14535 0 0 0 -1.45238,-1.44115a1.03819,1.03819 0 0 0 -0.37028,-0.15555c-0.09263,0.00094 -0.08538,-0.0124 -0.149,0.07719a1.91613,1.91613 0 0 0 -0.09637,0.9111a17.45769,17.45769 0 0 0 1.03624,4.15269a0.28953,0.28953 0 0 1 -0.48163,0.29708l-0.004,-0.00421c-0.98992,-1.03134 -2.01424,-2.03787 -3.07761,-2.99248c-0.52959,-0.47929 -1.06572,-0.94993 -1.61,-1.4c-0.27181,-0.22479 -0.54643,-0.44654 -0.82268,-0.64865c-0.06012,-0.0428 -0.15766,-0.12187 -0.18666,-0.13473c-0.02293,-0.01661 -0.0241,-0.00866 -0.0138,-0.00561a0.24024,0.24024 0 0 0 0.09,0.0276a0.47293,0.47293 0 0 0 0.28819,-0.04538a0.50983,0.50983 0 0 0 0.22689,-0.22082a0.47338,0.47338 0 0 0 0.03953,-0.10222c0.00585,-0.03509 0.00726,-0.01614 0.00866,-0.00678l0.03977,0.17731a16.03853,16.03853 0 0 0 0.73917,1.90547l0.85917,1.95436c0.57215,1.30945 1.15437,2.62148 1.69331,3.95737c0.53753,1.3415 1.10127,2.65751 1.53144,4.097c0.05286,0.18315 0.10432,0.36748 0.14947,0.56584l0.06058,0.31555l0.02176,0.16889c0.00327,-0.004 0.0014,-0.00819 -0.00492,-0.00959a1.466,1.466 0 0 0 0.44187,0.495a9.80322,9.80322 0 0 0 1.70618,1.05823a37.11739,37.11739 0 0 0 8.00831,2.83458a0.08979,0.08979 0 0 1 0.07111,0.1055a0.093,0.093 0 0 1 -0.09348,0.07257z" id="svg_32"/>
  <path fill="#020202" d="m423.27071,232.71361a0.44706,0.44706 0 0 1 -0.44724,-0.42011c-0.08234,-1.31367 -1.6,-3.83433 -2.17728,-4.69514a0.44842,0.44842 0 1 1 0.74478,-0.49964c0.09076,0.13473 2.21377,3.316 2.327,5.13864a0.44753,0.44753 0 0 1 -0.41918,0.47532l-0.02808,0.00093z" id="svg_33"/>
  <text fill="#000000" stroke="#fff" x="415" y="101" id="svg_36" stroke-width="0" font-size="24" font-family="'Libre Franklin'" text-anchor="start" xml:space="preserve"/>
  <path stroke="#fff" id="svg_35" d="m489.74004,154.03558l0,0c0,-5.46245 -5.797,-9.89065 -12.94797,-9.89065l-5.88544,0l0,0l-28.25012,0l-52.96896,0c-3.43402,0 -6.72739,1.04205 -9.15561,2.8969c-2.42821,1.85486 -3.79237,4.37058 -3.79237,6.99374l0,24.72662l0,0l0,14.83597l0,0c0,5.46246 5.797,9.89065 12.94797,9.89065l52.96896,0l36.90529,25.14962l-8.65518,-25.14962l5.88544,0c7.15096,0 12.94797,-4.42819 12.94797,-9.89065l0,0l0,-14.83597l0,0l0,-24.72662z" stroke-width="0" fill="#000000"/>
  <text transform="matrix(0.866728 0 0 1.11145 56.2426 -21.0839)" stroke="#fff" fill="#ffffff" x="375.8473" y="182" id="svg_42" stroke-width="0" font-size="16" font-family="'Noto Sans Display'" text-anchor="start" xml:space="preserve" font-weight="normal" font-style="normal">Literally  Nothing</text>
 </g>

</svg>